<svg width="82" height="71" viewBox="0 0 82 71" fill="none" xmlns="http://www.w3.org/2000/svg">
<path d="M67.8304 45.1459L42.0266 1.33702C41.9016 1.1207 41.7207 0.940506 41.502 0.814621C41.2833 0.688736 41.0346 0.621612 40.7811 0.620024C40.5275 0.618436 40.278 0.682438 40.0577 0.805574C39.8374 0.928709 39.6542 1.10662 39.5265 1.32136L31.7984 14.4484C31.5454 14.8781 31.4121 15.3655 31.4121 15.8617C31.4121 16.3578 31.5454 16.8453 31.7984 17.275L48.6242 45.8545C48.8776 46.2846 49.2421 46.6417 49.681 46.8898C50.1199 47.1379 50.6177 47.2683 51.1244 47.2678H66.5804C66.8334 47.2671 67.0818 47.2013 67.3008 47.0769C67.5197 46.9526 67.7015 46.7741 67.8281 46.5593C67.9546 46.3445 68.0214 46.1009 68.0218 45.8529C68.0222 45.6049 67.9562 45.3611 67.8304 45.1459Z" fill="black"/>
<path d="M0.19165 68.042L25.9955 24.2332C26.1221 24.0186 26.3042 23.8404 26.5232 23.7165C26.7423 23.5926 26.9907 23.5274 27.2436 23.5274C27.4965 23.5274 27.745 23.5926 27.9641 23.7165C28.1831 23.8404 28.365 24.0186 28.4917 24.2332L36.2237 37.3484C36.4767 37.7788 36.6099 38.2669 36.6099 38.7637C36.6099 39.2605 36.4767 39.7485 36.2237 40.179L19.3978 68.7585C19.1454 69.1885 18.7817 69.5457 18.3435 69.7939C17.9052 70.042 17.4078 70.1724 16.9017 70.1718H1.44171C1.18703 70.173 0.936574 70.1081 0.715787 69.9837C0.495 69.8593 0.311788 69.6797 0.184776 69.4633C0.0577643 69.2469 -0.00851994 69.0014 -0.00730789 68.7518C-0.00609584 68.5021 0.062543 68.2572 0.19165 68.042Z" fill="black"/>
<path d="M28.488 70.1624H80.0957C80.3489 70.1622 80.5976 70.0966 80.8167 69.9723C81.0358 69.848 81.2176 69.6693 81.3439 69.4542C81.4702 69.2391 81.5365 68.9952 81.5362 68.7471C81.5358 68.4989 81.4688 68.2552 81.3418 68.0405L73.6218 54.9174C73.3685 54.4873 73.0041 54.1302 72.5651 53.8821C72.1262 53.6339 71.6283 53.5036 71.1217 53.5041H37.47C36.9633 53.5036 36.4655 53.6339 36.0266 53.8821C35.5877 54.1302 35.2232 54.4873 34.9699 54.9174L27.242 68.0405C27.115 68.2552 27.048 68.4989 27.0476 68.7471C27.0473 68.9952 27.1135 69.2391 27.2398 69.4542C27.3661 69.6693 27.548 69.848 27.7671 69.9723C27.9862 70.0966 28.2348 70.1622 28.488 70.1624Z" fill="black"/>
</svg>
